<?xml version="1.0" encoding="UTF-8"?>
<svg version="1.1" xmlns="http://www.w3.org/2000/svg" width="866" height="650">
<path d="M0 0 C285.78 0 571.56 0 866 0 C866 214.5 866 429 866 650 C580.22 650 294.44 650 0 650 C0 435.5 0 221 0 0 Z " fill="#FEFEFE" transform="translate(0,0)"/>
<path d="M0 0 C18.7758245 -0.46864341 37.55045223 -0.82056638 56.33092594 -1.03624344 C65.05277334 -1.13908348 73.77097384 -1.27907298 82.49047852 -1.50878906 C90.09696508 -1.70908585 97.7008107 -1.83737491 105.30986112 -1.8817699 C109.335052 -1.907704 113.35269397 -1.96789705 117.37544441 -2.11460114 C141.72356145 -2.96841633 141.72356145 -2.96841633 148.77839279 1.92857361 C153.44071405 6.52400318 156.6559014 11.7192485 159.64312553 17.5063858 C161.72487077 21.33214095 164.36682088 24.65648432 167.0625 28.0625 C168.04120491 29.35938692 169.01687261 30.65857648 169.98828125 31.9609375 C170.4776416 32.61545898 170.96700195 33.26998047 171.47119141 33.94433594 C174.24862619 37.67892567 176.99656746 41.43520152 179.75 45.1875 C185.42331945 52.91553646 191.21138909 60.55002645 197.03808594 68.1628418 C202.00622353 74.66539815 206.87562263 81.23429756 211.7109375 87.8359375 C216.07277132 93.77671569 220.5206034 99.64748697 225 105.5 C230.73988885 113.000646 236.39417944 120.55703452 241.98120117 128.17211914 C245.73050813 133.28177983 249.50649305 138.36993089 253.3125 143.4375 C253.79912109 144.0864624 254.28574219 144.7354248 254.78710938 145.40405273 C257.09342046 148.47638857 259.40985294 151.54019559 261.74609375 154.58984375 C262.17043701 155.14679932 262.59478027 155.70375488 263.03198242 156.27758789 C264.16880197 157.76850998 265.31076846 159.25550364 266.453125 160.7421875 C268 163 268 163 268 165 C269.10611998 163.89388002 270.2118519 162.7873709 271.31640625 161.6796875 C272.56917776 160.42982266 273.82795574 159.18597249 275.08984375 157.9453125 C275.84394531 157.20023438 276.59804688 156.45515625 277.375 155.6875 C278.43847656 154.64142578 278.43847656 154.64142578 279.5234375 153.57421875 C281.52111916 151.49776416 283.42123107 149.39319846 285.30859375 147.21875 C288.99225064 142.97640845 292.82075652 138.88766772 296.6875 134.8125 C305.33567508 125.6604895 313.87614745 116.41559427 322.375 107.125 C327.12789533 101.92981416 331.92862749 96.78028799 336.73779297 91.63720703 C340.99536196 87.08224714 345.23061515 82.50745151 349.45410156 77.92089844 C353.3452272 73.69927242 357.26437266 69.50437784 361.1875 65.3125 C364.95651723 61.28417924 368.70410759 57.24339167 372.375 53.125 C377.1912884 47.73147853 382.17096715 42.49457168 387.13623047 37.23876953 C391.32696466 32.79649303 395.44939934 28.30592837 399.5078125 23.7421875 C403.76717992 19.05554811 408.13928677 14.47342105 412.50585938 9.88671875 C413.17166016 9.18417969 413.83746094 8.48164062 414.5234375 7.7578125 C415.12075684 7.1302002 415.71807617 6.50258789 416.33349609 5.85595703 C418.08877653 4.06464221 418.08877653 4.06464221 419.11108398 1.78955078 C422.35792871 -1.28649573 426.41499461 -0.48623574 430.69921875 -0.390625 C431.64940384 -0.38496521 432.59958893 -0.37930542 433.5785675 -0.37347412 C436.61538944 -0.35107148 439.65103431 -0.3008677 442.6875 -0.25 C444.74542568 -0.22994004 446.80336983 -0.21168839 448.86132812 -0.1953125 C453.90800607 -0.15119387 458.95380343 -0.0821393 464 0 C461.76962018 3.85352952 459.46754988 6.71985501 456.25 9.8125 C452.5650184 13.36421969 449.16709177 17.058116 445.82080078 20.9230957 C442.89981189 24.25493433 439.85566666 27.46756855 436.8125 30.6875 C435.48657708 32.09597575 434.16106119 33.50483478 432.8359375 34.9140625 C432.18592773 35.60532227 431.53591797 36.29658203 430.86621094 37.00878906 C428.20752363 39.84555694 425.57016954 42.70160038 422.9375 45.5625 C418.62451353 50.24837554 414.28741313 54.91088604 409.9375 59.5625 C403.03896486 66.94263454 396.21061838 74.38414918 389.40234375 81.84765625 C383.50300401 88.30304569 377.54269616 94.6975648 371.55444336 101.07055664 C366.88946696 106.03960279 362.26871562 111.04608054 357.671875 116.078125 C353.29994426 120.85912528 348.89965932 125.61388828 344.50292969 130.37207031 C343.03431788 131.96282787 341.5676212 133.55532699 340.1015625 135.1484375 C334.53710341 141.19188164 328.93941123 147.20212435 323.3125 153.1875 C318.63369227 158.16526561 314.01283634 163.18330821 309.46484375 168.28125 C303.10827234 175.29261878 296.69274243 182.30725757 290 189 C290.30656892 192.98084501 291.67236547 195.31899449 294.10546875 198.4140625 C294.75201416 199.24752197 295.39855957 200.08098145 296.06469727 200.93969727 C296.76522217 201.82584717 297.46574707 202.71199707 298.1875 203.625 C299.66017208 205.52111256 301.13150123 207.41826881 302.6015625 209.31640625 C303.3430957 210.27047363 304.08462891 211.22454102 304.84863281 212.20751953 C307.98506795 216.27862089 311.02925249 220.41424872 314.0625 224.5625 C321.82413591 235.14795836 329.70932885 245.63929708 337.60107422 256.12792969 C339.08888246 258.10562017 340.57600239 260.08382423 342.0625 262.0625 C342.53945313 262.69736328 343.01640625 263.33222656 343.5078125 263.98632812 C347.41352404 269.19568869 351.27102067 274.43980394 355.125 279.6875 C359.80279528 286.05595793 364.55700573 292.34877612 369.3984375 298.59375 C372.54115574 302.67952867 375.57805853 306.84261764 378.625 311 C383.6767485 317.89076221 388.80647416 324.71549529 394 331.5 C399.64912853 338.88055326 405.20649757 346.31980169 410.69775391 353.81835938 C415.18677848 359.9331388 419.76669341 365.97473782 424.375 372 C428.95141157 377.98486853 433.50008068 383.97895821 437.90234375 390.09375 C445.80269896 401.03949353 453.85642789 411.86682708 462.08886719 422.56469727 C467.97768705 430.23613216 473.69585706 438.03239979 479.40185547 445.84033203 C480.50119326 447.32593272 481.61574942 448.80035347 482.74267578 450.26513672 C483.29294434 450.98072754 483.84321289 451.69631836 484.41015625 452.43359375 C484.90781494 453.07224365 485.40547363 453.71089355 485.91821289 454.36889648 C487 456 487 456 487 458 C468.33707493 458.42165881 449.67512393 458.73845572 431.00841331 458.93261909 C422.33959531 459.02519751 413.67374668 459.15124144 405.00683594 459.35791016 C397.44687548 459.53809593 389.88906554 459.65362092 382.32701743 459.69359291 C378.32651044 459.71694365 374.33215112 459.77121482 370.33362961 459.90314102 C344.10525826 460.73559436 344.10525826 460.73559436 336.98809814 454.07073975 C333.80449918 450.37443188 331.34076859 446.44334533 329.1125679 442.11330795 C327.64009453 439.31636435 325.80582603 436.87066203 323.875 434.375 C323.2665625 433.52679687 322.658125 432.67859375 322.03125 431.8046875 C319.5206049 428.338066 316.94968051 424.91919235 314.375 421.5 C309.89656794 415.55037841 305.4678697 409.56638608 301.0625 403.5625 C296.08301323 396.78110842 291.01905701 390.0728552 285.88818359 383.40551758 C281.91982927 378.23588315 278.03916713 373.00700513 274.1875 367.75 C269.19879033 360.94214117 264.13001748 354.2019904 259 347.5 C253.34706912 340.11442448 247.78566126 332.67032947 242.29125977 325.16625977 C237.9121743 319.20041439 233.43925962 313.31115798 228.9375 307.4375 C221.77417349 298.08779411 214.83797244 288.58955382 208 279 C203.7619262 282.30776491 200.28264471 285.83113401 196.79443359 289.91650391 C193.90502427 293.27136366 190.85317705 296.47020276 187.8125 299.6875 C186.48657708 301.09597575 185.16106119 302.50483478 183.8359375 303.9140625 C183.18592773 304.60532227 182.53591797 305.29658203 181.86621094 306.00878906 C179.20752363 308.84555694 176.57016954 311.70160038 173.9375 314.5625 C169.62451399 319.24837504 165.28747405 323.91094346 160.9375 328.5625 C155.87473128 333.97741348 150.85205525 339.42592184 145.8515625 344.8984375 C142.55198306 348.4981919 139.21217062 352.06013331 135.875 355.625 C132.04527389 359.71714845 128.23495862 363.82073403 124.5 368 C120.16895379 372.84626361 115.73252821 377.58977255 111.29077148 382.33422852 C107.69124448 386.18123206 104.11457076 390.04663262 100.5625 393.9375 C95.60471846 399.36258348 90.58017773 404.72266625 85.54711914 410.07788086 C81.83796771 414.02824726 78.15371783 417.99830904 74.5 422 C70.20533975 426.70367551 65.86180003 431.35855539 61.5 436 C56.8585944 440.94320896 52.22194126 445.89036489 47.625 450.875 C46.75101563 451.82117188 45.87703125 452.76734375 44.9765625 453.7421875 C42.97818404 455.83308286 42.97818404 455.83308286 42 458 C27.81 458 13.62 458 -1 458 C0.69572653 454.60854693 1.58254628 453.2059289 4.1875 450.75 C6.7574649 448.25984768 9.16886874 445.71526802 11.5 443 C14.2530588 439.80448532 17.14594278 436.82849389 20.15527344 433.87597656 C21.93884449 432.06219149 23.60697306 430.1936727 25.265625 428.265625 C28.83051101 424.16562925 32.51792154 420.19755077 36.25 416.25 C41.65236904 410.51185663 47.01259914 404.74064591 52.328125 398.921875 C56.69865719 394.14240413 61.0974101 389.38903803 65.49267578 384.63232422 C66.97410134 383.02804639 68.45408992 381.42245634 69.93359375 379.81640625 C75.85979358 373.38526146 81.81306015 366.98027773 87.78417969 360.59082031 C93.0566917 354.94606255 98.29876361 349.2737202 103.53222656 343.59277344 C106.5214659 340.34896148 109.51453015 337.10867746 112.50708008 333.86791992 C114.971443 331.19882654 117.43453187 328.52858483 119.89453125 325.85546875 C125.46051551 319.81093135 131.05930722 313.79919424 136.6875 307.8125 C140.64752116 303.59973254 144.59053382 299.37932464 148.4375 295.0625 C152.54066464 290.46103833 156.76677034 285.98133103 161 281.5 C166.75439844 275.40648415 172.43036778 269.2631688 178 263 C179.68649632 261.12409717 181.37398939 259.24908995 183.0625 257.375 C183.81660156 256.53710938 184.57070313 255.69921875 185.34765625 254.8359375 C185.89292969 254.23007812 186.43820312 253.62421875 187 253 C185.40509259 247.78587961 182.10725759 244.05548796 178.75 239.875 C173.7566191 233.56075188 168.87200628 227.18907178 164.125 220.6875 C159.1599536 213.89801608 154.11327281 207.17856041 149 200.5 C143.25615573 192.99445223 137.59793894 185.43312079 132.0078125 177.8125 C128.36846391 172.85201802 124.70023321 167.91521683 121 163 C116.70917798 157.30027261 112.46976112 151.56499947 108.25 145.8125 C102.57681778 138.08436511 96.78860854 130.44997046 90.96191406 122.8371582 C85.99600186 116.33751455 81.12852029 109.77174551 76.2956543 103.17285156 C71.87022344 97.14507707 67.35639771 91.18885076 62.8125 85.25 C57.78454856 78.67815905 52.81116049 72.07514636 47.93847656 65.38745117 C44.68147353 60.91915088 41.38352844 56.48341201 38.0625 52.0625 C37.56186035 51.39605469 37.0612207 50.72960937 36.54541016 50.04296875 C34.54056667 47.37586272 32.53425692 44.70986177 30.52783203 42.04394531 C24.53014725 34.07241505 18.55821439 26.08216263 12.625 18.0625 C12.05410645 17.29381592 11.48321289 16.52513184 10.89501953 15.7331543 C10.34442871 14.98718994 9.79383789 14.24122559 9.2265625 13.47265625 C8.74783691 12.82562744 8.26911133 12.17859863 7.77587891 11.51196289 C6.10435965 9.14761567 4.49264805 6.75373132 2.88900757 4.34300232 C2.3481571 3.53035636 1.80730663 2.7177104 1.25006676 1.8804388 C0.83754473 1.259894 0.4250227 0.63934919 0 0 Z " fill="#020202" transform="translate(190,96)"/>
<path d="M0 0 C8.56232184 -0.32574452 17.12202049 -0.57377529 25.68902397 -0.72537041 C29.66829451 -0.79817065 33.64330168 -0.89668979 37.62011719 -1.05615234 C65.51593628 -2.14563061 65.51593628 -2.14563061 71.14453125 2.89086914 C73.90883784 6.273439 75.40857609 9.95748683 77 14 C78.61297504 16.41198125 78.61297504 16.41198125 80.328125 18.41796875 C80.80999268 19.04155273 81.29186035 19.66513672 81.78833008 20.30761719 C82.27068115 20.92797852 82.75303223 21.54833984 83.25 22.1875 C87.8496934 28.15237418 92.36205814 34.17302311 96.8125 40.25 C102.59976077 48.14935805 108.5102035 55.94829784 114.46020508 63.72558594 C118.30097422 68.75162721 122.07181425 73.81507616 125.76171875 78.953125 C129.05160053 83.4314981 132.43692657 87.83602774 135.8125 92.25 C141.82023067 100.11007984 147.73703282 108.02529902 153.55908203 116.0234375 C161.05477612 126.30556887 168.60218318 136.53734377 176.3984375 146.59375 C179.54115574 150.67952867 182.57805853 154.84261764 185.625 159 C190.6767485 165.89076221 195.80647416 172.71549529 201 179.5 C206.65295712 186.88555529 212.2143391 194.32967102 217.70874023 201.83374023 C222.08782538 207.79958517 226.56072847 213.68885194 231.0625 219.5625 C236.66463244 226.87419074 242.12816322 234.26756338 247.49072266 241.75634766 C251.33714954 247.11690833 255.31420061 252.34890707 259.36328125 257.55859375 C262.52298597 261.6522611 265.5689225 265.82875808 268.625 270 C273.67662735 276.89084904 278.80647626 283.71549803 284 290.5 C289.65358644 297.88637749 295.21470264 305.33194562 300.7109375 312.8359375 C305.07277294 318.7767179 309.52070271 324.64740917 314 330.5 C320.86243333 339.47040421 327.59485666 348.52861249 334.26904297 357.63964844 C336.64057982 360.87350151 339.02087399 364.10086189 341.40136719 367.328125 C343.15033434 369.69960588 344.89762793 372.07231107 346.64453125 374.4453125 C348.8670137 377.46397532 351.09399927 380.47923721 353.32421875 383.4921875 C354.34119771 384.86975337 355.35812746 386.24735557 356.375 387.625 C357.08112427 388.57584473 357.08112427 388.57584473 357.80151367 389.54589844 C361 393.88674474 361 393.88674474 361 395 C352.40287232 395.25559342 343.80734676 395.45066624 335.20735168 395.56993389 C331.21319835 395.62719835 327.22165482 395.70475954 323.22900391 395.82983398 C319.37081593 395.94993091 315.51512594 396.01523549 311.6552124 396.04364967 C310.18773051 396.06387753 308.72037612 396.10338667 307.25396729 396.16303062 C295.78520305 396.61067788 295.78520305 396.61067788 291.38517761 392.64080811 C289.33695623 389.84542052 287.65714393 387.03941521 286 384 C284.89488389 382.43861596 283.76990036 380.89081277 282.61328125 379.3671875 C282.07445312 378.63306641 281.535625 377.89894531 280.98046875 377.14257812 C275.36064783 369.50251714 269.67326335 361.92309184 263.88916016 354.40673828 C259.92042708 349.23673658 256.03947529 344.00742574 252.1875 338.75 C247.19879033 331.94214117 242.13001748 325.2019904 237 318.5 C231.34643982 311.11360229 225.78529771 303.66805486 220.2890625 296.1640625 C215.92722868 290.22328431 211.4793966 284.35251303 207 278.5 C201.25628366 270.9943524 195.59794097 263.43312357 190.0078125 255.8125 C186.36846391 250.85201802 182.70023321 245.91521683 179 241 C174.70917798 235.30027261 170.46976112 229.56499947 166.25 223.8125 C161.23844507 216.98564851 156.14662826 210.22553852 151 203.5 C145.25795761 195.99638301 139.60169696 188.43691166 134.01220703 180.8190918 C128.39874459 173.16940485 122.70576862 165.58095764 117 158 C110.57992992 149.46998721 104.19422099 140.91759636 97.875 132.3125 C93.19723019 125.9440234 88.44299383 119.65122332 83.6015625 113.40625 C80.45884426 109.32047133 77.42194147 105.15738236 74.375 101 C69.3232515 94.10923779 64.19352584 87.28450471 59 80.5 C53.34864249 73.11653459 47.78940102 65.67412556 42.2956543 58.17285156 C37.20500948 51.2390049 31.99090758 44.40305865 26.76318359 37.57226562 C22.37850044 31.83441726 18.06512171 26.05204837 13.82421875 20.20727539 C10.3239331 15.39639583 6.70173207 10.6866546 2.99462891 6.03320312 C0 2.21673537 0 2.21673537 0 0 Z " fill="#FDFDFD" transform="translate(253,127)"/>
</svg>
